<?xml version="1.0" ?>
<svg xmlns="http://www.w3.org/2000/svg" width="128" height="128" viewBox="0 0 128 128">
  <path d="M0,64.003C-0.038,28.658 28.632,-0.009 64.009,0c35.338,0.009 63.929,28.602 63.961,63.967C128.002,99.316 99.315,128 63.961,127.97C28.6,127.939 0.038,99.375 0,64.003zM2.901,65.08c-0.043,2.276 0.179,4.533 0.47,6.785c1.341,10.379 5.142,19.771 11.276,28.241c0.513,0.708 0.668,0.491 1.018,-0.089c3.347,-5.536 6.708,-11.064 10.093,-16.576c0.332,-0.541 0.325,-0.859 -0.095,-1.359c-4.743,-5.643 -9.456,-11.311 -14.177,-16.972c0.107,-0.027 0.214,-0.076 0.322,-0.076c3.253,-0.005 6.506,0.007 9.758,-0.017c0.478,-0.004 0.702,0.263 0.952,0.565c2.793,3.365 5.59,6.728 8.381,10.096c0.864,1.043 1.249,1.057 2.093,0.032c2.728,-3.31 5.468,-6.611 8.165,-9.947c0.457,-0.566 0.923,-0.761 1.631,-0.75c2.607,0.04 5.216,0.007 7.823,0.022c0.638,0.004 1.285,-0.109 1.916,0.085c-4.314,5.803 -8.622,11.61 -12.952,17.4c-0.328,0.438 -0.403,0.757 -0.135,1.264c7.166,13.564 14.318,27.135 21.457,40.713c0.227,0.431 0.486,0.577 0.964,0.59c13.633,0.369 26.071,-3.282 37.261,-11.093c4.67,-3.26 8.812,-7.098 12.349,-11.573c2.916,-3.509 5.342,-7.333 7.345,-11.428c0.066,-0.123 0.137,-0.244 0.197,-0.371c6.087,-12.771 7.699,-26.109 4.636,-39.895C116.464,18.373 84.847,-2.451 52.425,3.99C32.708,7.907 18.289,19.161 9.129,37.044c-3.616,7.06 -5.583,14.625 -6.089,22.555C2.777,61.42 2.879,63.251 2.901,65.08zM54.023,124.296c-7.077,-11.617 -14.049,-23.063 -21.038,-34.534c-0.185,0.156 -0.32,0.256 -0.439,0.372c-4.658,4.537 -9.305,9.086 -13.985,13.6c-0.5,0.482 -0.412,0.716 -0.008,1.161c7.402,8.133 16.314,13.927 26.779,17.319C48.101,123.11 50.923,123.797 54.023,124.296z" fill="#030301"/>
  <path d="M3.04,59.599c0.506,-7.93 2.472,-15.495 6.089,-22.555C18.289,19.161 32.708,7.907 52.425,3.99c32.422,-6.441 64.039,14.383 71.228,46.737c3.063,13.786 1.451,27.124 -4.636,39.895c-0.06,0.126 -0.131,0.247 -0.197,0.37c-0.053,-0.157 -0.129,-0.308 -0.157,-0.468c-1.586,-8.931 -3.166,-17.863 -4.751,-26.795c-2.005,-11.302 -4.012,-22.604 -6.02,-33.906c-0.322,-1.814 -0.65,-3.627 -0.976,-5.441c-0.053,-0.004 -0.106,-0.008 -0.158,-0.012c-5.238,15.083 -10.476,30.166 -15.783,45.446c-2.922,-6.832 -5.762,-13.475 -8.665,-20.263c-0.235,0.425 -0.374,0.664 -0.502,0.91c-3.199,6.137 -6.396,12.276 -9.602,18.41c-0.124,0.237 -0.178,0.643 -0.461,0.644c-0.352,0.001 -0.374,-0.438 -0.494,-0.698c-1.805,-3.888 -3.605,-7.778 -5.378,-11.681c-0.235,-0.517 -0.388,-0.579 -0.788,-0.165c-0.74,0.766 -1.523,1.49 -2.278,2.242c-0.247,0.245 -0.489,0.418 -0.871,0.412c-1.738,-0.026 -3.476,-0.025 -5.214,-0.033c0.038,-0.428 0.937,-0.674 0.169,-1.292c-2.423,-1.951 -4.804,-3.953 -7.19,-5.95c-0.337,-0.282 -0.512,-0.276 -0.756,0.109c-0.495,0.78 -1.075,1.507 -1.554,2.296c-0.298,0.491 -0.641,0.66 -1.214,0.653c-4.008,-0.053 -8.016,-0.071 -12.024,-0.097c-5.55,-0.035 -11.1,-0.072 -16.65,-0.089c-0.569,-0.002 -1.011,-0.155 -1.438,-0.532c-0.925,-0.815 -1.894,-1.579 -2.832,-2.38c-0.245,-0.21 -0.412,-0.293 -0.698,-0.033c-2.696,2.447 -5.406,4.879 -8.112,7.316C3.962,59.596 3.501,59.597 3.04,59.599z" fill="#FDF500"/>
  <path d="M111.475,102.421c-3.538,4.475 -7.68,8.314 -12.349,11.573c-11.19,7.811 -23.628,11.462 -37.261,11.093c-0.478,-0.013 -0.737,-0.159 -0.964,-0.59c-7.14,-13.578 -14.291,-27.149 -21.457,-40.713c-0.268,-0.507 -0.193,-0.826 0.135,-1.264c4.33,-5.791 8.638,-11.598 12.952,-17.4c3.308,-0.008 6.616,-0.002 9.923,-0.039c0.612,-0.007 0.947,0.184 1.246,0.729c2.442,4.444 4.918,8.869 7.385,13.3c0.671,1.204 1.348,2.404 2.111,3.765c2.993,-5.979 5.891,-11.769 8.871,-17.724c0.209,0.511 0.34,0.817 0.461,1.127c2.858,7.332 5.72,14.662 8.561,22.001c0.21,0.543 0.46,0.801 1.087,0.772c1.147,-0.054 2.301,-0.054 3.446,0.012c0.713,0.041 1.007,-0.199 1.21,-0.888c2.352,-7.976 4.738,-15.942 7.12,-23.909c0.086,-0.289 0.115,-0.616 0.391,-0.901c0.899,4.951 1.786,9.824 2.669,14.698c1.098,6.059 2.188,12.12 3.291,18.178C110.678,98.304 111.083,100.361 111.475,102.421z" fill="#FDF500"/>
  <path d="M111.475,102.421c-0.391,-2.06 -0.796,-4.117 -1.172,-6.18c-1.103,-6.058 -2.193,-12.119 -3.291,-18.178c-0.883,-4.874 -1.77,-9.748 -2.669,-14.698c-0.276,0.285 -0.305,0.612 -0.391,0.901c-2.382,7.967 -4.768,15.933 -7.12,23.909c-0.203,0.689 -0.497,0.929 -1.21,0.888c-1.146,-0.066 -2.3,-0.066 -3.446,-0.012c-0.627,0.03 -0.877,-0.228 -1.087,-0.772c-2.842,-7.338 -5.703,-14.669 -8.561,-22.001c-0.121,-0.31 -0.251,-0.616 -0.461,-1.127c-2.98,5.955 -5.878,11.744 -8.871,17.724c-0.763,-1.36 -1.44,-2.561 -2.111,-3.765c-2.467,-4.43 -4.943,-8.856 -7.385,-13.3c-0.299,-0.544 -0.634,-0.735 -1.246,-0.729c-3.307,0.037 -6.615,0.03 -9.923,0.039c-0.631,-0.194 -1.278,-0.081 -1.916,-0.085c-2.608,-0.015 -5.216,0.018 -7.823,-0.022c-0.708,-0.011 -1.174,0.184 -1.631,0.75c-2.697,3.336 -5.437,6.636 -8.165,9.947c-0.844,1.025 -1.229,1.011 -2.093,-0.032c-2.791,-3.367 -5.588,-6.73 -8.381,-10.096c-0.251,-0.302 -0.474,-0.568 -0.952,-0.565c-3.253,0.024 -6.506,0.013 -9.758,0.017c-0.107,0 -0.214,0.05 -0.322,0.076c-2.862,-0.01 -5.725,-0.02 -8.587,-0.03c-0.023,-1.829 -0.124,-3.659 0.139,-5.481c0.461,-0.002 0.922,-0.003 1.382,-0.005c0.308,0.012 0.616,0.034 0.923,0.034c16.818,0.002 33.635,0.002 50.453,0c0.308,0 0.615,-0.023 0.923,-0.035c1.738,0.009 3.476,0.007 5.214,0.033c0.382,0.006 0.624,-0.167 0.871,-0.412c0.755,-0.752 1.538,-1.476 2.278,-2.242c0.4,-0.414 0.554,-0.352 0.788,0.165c1.773,3.903 3.573,7.793 5.378,11.681c0.12,0.259 0.142,0.698 0.494,0.698c0.284,-0.001 0.337,-0.407 0.461,-0.644c3.205,-6.134 6.402,-12.273 9.602,-18.41c0.128,-0.246 0.267,-0.485 0.502,-0.91c2.903,6.788 5.744,13.431 8.665,20.263c5.306,-15.28 10.545,-30.363 15.783,-45.446c0.053,0.004 0.106,0.008 0.158,0.012c0.325,1.814 0.654,3.627 0.976,5.441c2.007,11.302 4.015,22.604 6.02,33.906c1.584,8.931 3.165,17.864 4.751,26.795c0.028,0.16 0.104,0.312 0.157,0.468C116.817,95.088 114.391,98.912 111.475,102.421z" fill="#E54D3C"/>
  <path d="M54.023,124.296c-3.1,-0.499 -5.922,-1.186 -8.691,-2.083c-10.465,-3.391 -19.377,-9.185 -26.779,-17.319c-0.404,-0.444 -0.492,-0.679 0.008,-1.161c4.681,-4.514 9.327,-9.063 13.985,-13.6c0.119,-0.116 0.254,-0.216 0.439,-0.372C39.974,101.234 46.946,112.68 54.023,124.296z" fill="#FCF400"/>
  <path d="M2.901,65.08c2.862,0.01 5.725,0.02 8.587,0.03c4.721,5.661 9.434,11.329 14.177,16.972c0.42,0.5 0.427,0.817 0.095,1.359c-3.385,5.513 -6.746,11.041 -10.093,16.576c-0.351,0.58 -0.506,0.797 -1.018,0.089C8.514,91.637 4.713,82.244 3.372,71.865C3.08,69.613 2.858,67.356 2.901,65.08z" fill="#FDF400"/>
  <path d="M56.722,59.593c-0.308,0.012 -0.615,0.035 -0.923,0.035c-16.818,0.002 -33.635,0.002 -50.453,0c-0.308,0 -0.616,-0.022 -0.923,-0.034c2.706,-2.437 5.416,-4.869 8.112,-7.316c0.286,-0.259 0.453,-0.176 0.698,0.033c0.938,0.801 1.907,1.565 2.832,2.38c0.427,0.377 0.87,0.53 1.438,0.532c5.55,0.016 11.1,0.054 16.65,0.089c4.008,0.025 8.016,0.044 12.024,0.097c0.573,0.008 0.916,-0.162 1.214,-0.653c0.479,-0.789 1.059,-1.515 1.554,-2.296c0.244,-0.385 0.419,-0.391 0.756,-0.109c2.385,1.997 4.767,3.999 7.19,5.95C57.659,58.919 56.76,59.165 56.722,59.593z" fill="#020100"/>
</svg>
