<?xml version="1.0" encoding="utf-8"?>
<svg id="master-artboard" viewBox="0 0 512 512" version="1.1" xmlns="http://www.w3.org/2000/svg" x="0px" y="0px" style="enable-background:new 0 0 1400 980;" width="512px" height="512px"><rect id="ee-background" x="0" y="0" width="512" height="512" style="fill: white; fill-opacity: 0; pointer-events: none;"/><g transform="matrix(4.689908981323242, 0, 0, 4.689908981323242, -44.04111862182617, 33.48873519897461)"><path d="M88.197,70.637c-1.409,1.291 -2.518,2.46 -2.086,4.291c0.562,2.379 3.069,3.513 5.292,2.395c3.813,-1.918 6.46,-7.105 5.688,-11.145c-0.944,-4.936 -4.953,-8.618 -9.742,-8.97c-3.764,-0.277 -7.1,0.615 -9.878,3.327c-2.077,2.028 -2.53,4.672 -3.049,7.317c-0.135,0.689 -0.039,1.627 -0.455,2.021c-1.807,1.706 -0.695,2.92 0.286,4.495c4.261,6.841 -0.458,15.81 -8.727,16.774c-8.244,0.962 -15.044,-6.996 -12.617,-14.693c0.584,-1.852 3.073,-3.431 2.563,-4.757c-0.689,-1.793 -1.283,-3.511 -1.521,-5.413c-0.649,-5.192 -5.053,-9.151 -10.523,-9.528c-5.802,-0.399 -10.497,2.706 -11.941,7.898c-1.217,4.378 0.972,9.588 5.014,11.929c1.984,1.149 3.732,0.924 4.991,-0.643c1.317,-1.64 1.143,-3.068 -0.583,-4.92c-0.203,-0.218 -0.56,-0.354 -0.489,-0.755c2.04,-0.46 4.873,0.55 6.567,2.484c1.819,2.077 2.462,4.52 1.504,7.15c-0.426,1.171 -0.528,1.897 0.361,3.003c2.045,2.544 0.996,5.938 -2.066,7.474c0.286,-3.236 -0.683,-4.505 -4.023,-4.84c-3.141,-0.315 -6.25,-0.632 -9.067,-2.224c-1.009,-0.57 -0.814,0.465 -1.016,0.842c-3.073,5.752 -9.199,8.253 -15.343,6.236c-4.574,-1.502 -7.873,-6.203 -7.76,-11.058c0.109,-4.662 3.27,-8.759 7.672,-9.944c3.166,-0.852 7.026,0.603 8.807,3.319c1.348,2.055 1.268,4.948 -0.19,6.869c-1.502,1.979 -3.943,2.673 -6.581,1.834c-0.607,-0.193 -1.18,-0.494 -1.769,-0.743c-0.084,1.729 1.298,3.213 3.339,3.589c4.935,0.91 9.931,-4.247 8.895,-9.185c-0.614,-2.929 -2.134,-5.241 -4.851,-6.563c-1.076,-0.524 -1.294,-1.133 -1.204,-2.247c0.589,-7.337 4.499,-12.396 11.069,-15.159c6.802,-2.861 13.491,-2.175 19.408,2.495c3.653,2.883 6.401,6.475 7.099,11.286c0.028,0.191 0.042,0.389 0.107,0.567c0.527,1.439 0.897,3.155 2.858,3.134c1.934,-0.021 2.469,-1.629 2.817,-3.161c1.141,-5.022 3.606,-9.16 7.903,-12.103c10.699,-7.327 26.508,-1.509 29.383,10.81c0.116,0.497 0.15,1.013 0.236,1.518c0.315,1.835 -0.052,3.069 -1.938,4.154c-3.72,2.139 -4.955,5.778 -3.868,9.749c1.124,4.106 6.727,6.735 9.96,4.646c0.832,-0.538 1.709,-1.114 1.787,-2.462c-1.522,0.22 -2.824,1.062 -4.317,0.825c-2.719,-0.432 -4.592,-2.3 -5.028,-5.077c-0.375,-2.39 1.215,-5.167 3.685,-6.434c5.395,-2.768 11.8,0.61 13.206,6.965c1.669,7.545 -4.284,14.254 -12.155,13.735c-4.767,-0.315 -8.288,-2.46 -10.288,-6.871c-0.407,-0.897 -0.733,-1.232 -1.835,-0.756c-2.598,1.123 -5.322,1.878 -8.213,1.714c-0.192,-0.011 -0.387,0 -0.578,0.024c-3.302,0.413 -4.401,2.105 -3.369,5.182c-3.153,-1.133 -4.417,-5.305 -2.248,-7.98c0.82,-1.011 0.839,-1.714 0.451,-2.853C78.093,75.11 82.45,69.927 88.197,70.637zM64.154,84.624c2.434,-0.03 4.531,-2.074 4.476,-4.363c-0.056,-2.363 -2.092,-4.231 -4.603,-4.22c-2.492,0.011 -4.405,1.914 -4.372,4.351C59.688,82.826 61.633,84.655 64.154,84.624z" fill="#0434BC"/><path d="M76.732,34.836c-4.361,0.332 -8.729,0.067 -13.093,0.143c-3.533,0.062 -7.07,0.03 -10.6,0.173c-1.395,0.057 -2.251,-0.467 -3.054,-1.526c-3.927,-5.184 -3.094,-12.585 2.073,-17.061c0.399,3.698 1.316,7.079 4.852,9.154c-3.356,-7.191 -2.334,-13.53 3.481,-19.092c-0.81,6.599 1.204,12.068 6.275,16.442C61.33,15.547 62.783,7.991 66.347,0c1.862,5.63 5.415,9.672 9.127,13.626c2.586,2.755 4.559,5.907 5.23,9.695c0.778,4.392 -0.3,8.249 -3.602,11.376C76.896,34.522 76.801,34.645 76.732,34.836z" fill="#EC2229"/><path d="M64.227,65.243c-1.329,-6.088 -4.249,-11.025 -9.35,-14.586c-0.991,-0.692 -1.819,-1.626 -1.293,-2.915c0.46,-1.128 1.576,-1.406 2.732,-1.405c5.013,0.001 10.025,0.008 15.038,-0.006c0.857,-0.002 1.661,0.19 2.411,0.56c1.497,0.739 1.74,2.027 0.626,3.279c-0.425,0.479 -0.872,0.965 -1.392,1.33C68.199,54.87 65.228,59.393 64.227,65.243z" fill="#0434BC"/><path d="M64.299,43.253c-4.111,0 -8.223,-0.005 -12.334,0.005c-0.776,0.002 -1.549,-0.004 -2.263,-0.342c-1.08,-0.511 -1.7,-1.307 -1.583,-2.58c0.116,-1.25 1.01,-1.728 2.019,-2.029c0.475,-0.142 1.02,-0.065 1.533,-0.065c8.352,-0.003 16.703,-0.003 25.055,-0.001c2.393,0.001 3.607,0.831 3.633,2.471c0.027,1.723 -1.222,2.604 -3.725,2.607c-4.111,0.005 -8.223,0.001 -12.334,0.001C64.299,43.298 64.299,43.276 64.299,43.253z" fill="#0434BC"/><path d="M76.732,34.836c0.07,-0.191 0.164,-0.315 0.371,-0.139C76.979,34.744 76.856,34.79 76.732,34.836z" fill="#EB151D"/></g></svg>