<?xml version="1.0" ?>
<svg xmlns="http://www.w3.org/2000/svg" width="128" height="128" viewBox="0 0 128 128">
  <path d="M115.512,0.482c2.408,-0.413 4.886,-0.674 7.317,-0.306c1.545,0.245 3.147,0.822 4.16,2.068c0.89,1.071 1.146,2.522 1.035,3.876c-0.168,2.006 -0.931,3.903 -1.813,5.693c-1.457,2.875 -3.327,5.523 -5.318,8.053c-2.83,3.572 -5.954,6.906 -9.202,10.102c-4.367,4.292 -8.995,8.318 -13.761,12.168c-0.362,0.282 -0.714,0.575 -1.074,0.859c-0.377,0 -0.755,0 -1.13,-0.002c3.654,-2.931 7.201,-5.998 10.566,-9.259c2.938,-2.847 5.746,-5.835 8.271,-9.054c1.5,-1.922 2.902,-3.926 4.045,-6.08c0.794,-1.519 1.481,-3.124 1.737,-4.828c0.178,-1.231 0.065,-2.582 -0.69,-3.617c-0.778,-1.085 -2.089,-1.63 -3.366,-1.864c-2.277,-0.405 -4.606,-0.117 -6.859,0.296c-4.733,0.929 -9.281,2.61 -13.711,4.483c-8.741,3.763 -17.047,8.466 -25.027,13.625c-7.452,4.842 -14.626,10.114 -21.383,15.88c-3.947,3.377 -7.753,6.927 -11.281,10.739c-2.59,2.816 -5.056,5.767 -7.096,9.005c-1.142,1.85 -2.185,3.802 -2.689,5.928c-0.307,1.336 -0.362,2.84 0.364,4.057c0.651,1.116 1.876,1.761 3.104,2.047c2.241,0.512 4.571,0.263 6.812,-0.113c4.291,-0.777 8.428,-2.222 12.463,-3.848c2.564,-1.042 5.083,-2.189 7.573,-3.397c0,0.333 0,0.664 0.004,0.997c-4.371,2.277 -8.835,4.38 -13.405,6.226c-4.334,1.735 -8.766,3.272 -13.347,4.215c-2.541,0.501 -5.146,0.849 -7.737,0.586c-1.555,-0.175 -3.174,-0.604 -4.348,-1.689c-0.923,-0.832 -1.416,-2.061 -1.479,-3.286c-0.106,-1.807 0.438,-3.58 1.121,-5.233c0.796,-1.897 1.846,-3.677 2.971,-5.399c0.368,-0.541 0.733,-1.083 1.115,-1.615c2.758,-3.831 5.913,-7.362 9.208,-10.739c7.11,-7.222 14.921,-13.73 23.05,-19.779c7.688,-5.699 15.688,-10.984 23.981,-15.769c4.79,-2.76 9.683,-5.344 14.696,-7.685c4.109,-1.911 8.299,-3.661 12.6,-5.101C109.773,1.8 112.613,0.996 115.512,0.482L115.512,0.482z" fill="#FAA61A"/>
  <path d="M97.929,42.134c2.55,-0.218 5.117,-0.267 7.675,-0.269c3.174,0.027 6.357,0.197 9.49,0.724c2.198,0.384 4.401,0.921 6.394,1.946c1.324,0.697 2.601,1.681 3.2,3.091c0.557,1.28 0.387,2.756 -0.145,4.016c-0.745,1.763 -2.001,3.25 -3.337,4.602c-2.282,2.255 -4.896,4.148 -7.587,5.887c-5.805,3.708 -12.03,6.711 -18.365,9.409c-9.756,4.119 -19.842,7.44 -30.075,10.174c-10.861,2.877 -21.915,5.114 -33.103,6.265c-6.139,0.604 -12.336,0.923 -18.493,0.39c-3.043,-0.294 -6.118,-0.76 -8.96,-1.934c-1.551,-0.666 -3.104,-1.599 -3.966,-3.095c-0.751,-1.276 -0.712,-2.875 -0.184,-4.222C1.21,77.2 2.573,75.599 4.011,74.16c3.145,-3.06 6.845,-5.484 10.616,-7.703c2.865,-1.692 5.852,-3.163 8.821,-4.659c-0.381,0.532 -0.747,1.073 -1.115,1.615c-2.809,1.65 -5.576,3.404 -8.052,5.531c-1.436,1.246 -2.807,2.618 -3.771,4.267c-0.632,1.098 -1.07,2.413 -0.761,3.683c0.266,1.155 1.125,2.074 2.095,2.711c1.494,0.974 3.233,1.492 4.962,1.872c3.217,0.68 6.521,0.832 9.803,0.847c6.323,-0.043 12.623,-0.738 18.858,-1.743c10.215,-1.673 20.284,-4.199 30.126,-7.397c8.664,-2.855 17.202,-6.205 25.215,-10.585c3.305,-1.838 6.542,-3.843 9.414,-6.312c1.449,-1.276 2.846,-2.672 3.785,-4.372c0.602,-1.098 0.982,-2.411 0.626,-3.65c-0.342,-1.231 -1.338,-2.154 -2.408,-2.787c-1.704,-0.989 -3.642,-1.484 -5.566,-1.838c-3.233,-0.571 -6.527,-0.68 -9.803,-0.649C97.215,42.709 97.569,42.418 97.929,42.134L97.929,42.134z" fill="#56C5D0"/>
  <path d="M87.363,91.084c1.483,-0.682 2.963,-1.361 4.448,-2.043c0,8.08 0.002,16.161 -0.002,24.241c-1.481,0.686 -2.963,1.369 -4.446,2.051C87.361,107.249 87.361,99.166 87.363,91.084zM40.157,91.082c1.479,-0.631 2.953,-1.264 4.432,-1.891c0.004,8.279 -0.002,16.558 0.004,24.837c0.045,0.96 -0.286,1.936 -0.933,2.651c-0.44,0.499 -1.027,0.836 -1.633,1.093c-4.776,2.189 -9.535,4.413 -14.305,6.62c-1.52,0.643 -3.172,1.065 -4.835,0.985c-1.187,-0.056 -2.396,-0.477 -3.231,-1.348c-0.913,-0.921 -1.32,-2.201 -1.571,-3.441c-0.348,-1.858 -0.28,-3.866 0.595,-5.578c0.683,-1.355 1.883,-2.405 3.255,-3.036c4.524,-2.113 9.048,-4.226 13.574,-6.337c-0.008,1.62 0.01,3.241 -0.008,4.861c-4.154,1.965 -8.297,3.948 -12.445,5.919c-0.669,0.306 -1.31,0.74 -1.7,1.377c-0.464,0.736 -0.475,1.729 -0.022,2.473c0.407,0.633 1.217,0.82 1.925,0.826c0.655,-0.019 1.324,-0.092 1.936,-0.335c4.997,-2.335 9.99,-4.68 14.99,-7.011C40.178,106.191 40.159,98.637 40.157,91.082L40.157,91.082zM63.101,91.082c1.477,-0.652 2.955,-1.301 4.432,-1.95c0.008,8.059 -0.01,16.116 0.01,24.177c-1.471,0.674 -2.963,1.301 -4.442,1.953C63.101,107.202 63.101,99.141 63.101,91.082L63.101,91.082z" fill="#231F20"/>
  <path d="M102.012,89.919c2.136,1.297 4.209,2.701 6.167,4.253c1.207,0.974 2.39,1.998 3.364,3.208c0.409,0.52 0.786,1.077 0.996,1.71c0.168,0.473 0.094,0.984 0.108,1.476c-0.02,0.518 0.037,1.042 -0.027,1.558c-0.235,0.783 -0.925,1.32 -1.608,1.716c-2.333,1.169 -4.639,2.397 -6.965,3.585c-0.012,0.863 0,1.727 -0.006,2.592c3.09,-1.437 6.179,-2.877 9.269,-4.312c0.006,1.628 -0.002,3.258 0.004,4.888c-11.551,5.381 -23.11,10.747 -34.664,16.12c-0.004,-1.636 -0.002,-3.27 0,-4.906c7.778,-3.607 15.549,-7.233 23.333,-10.826c0.029,-0.908 -0.006,-1.813 0.02,-2.721c-1.352,0.473 -2.771,0.956 -4.225,0.781c-0.886,-0.095 -1.747,-0.58 -2.185,-1.367c-0.659,-1.143 -0.663,-2.53 -0.489,-3.8c0.086,-1.169 0.755,-2.179 1.373,-3.138c1.614,-2.357 3.544,-4.477 5.529,-6.528C102.016,92.782 102.007,91.351 102.012,89.919L102.012,89.919zM103.98,97.984c-0.002,1.942 -0.002,3.881 0.002,5.823c1.191,-0.485 2.39,-1.022 3.37,-1.868c0.432,-0.393 0.864,-0.89 0.88,-1.502c-0.041,-0.637 -0.51,-1.149 -1.039,-1.461C106.218,98.399 105.089,98.152 103.98,97.984L103.98,97.984zM98.431,103.178c-0.293,0.339 -0.542,0.754 -0.573,1.209c-0.002,0.471 0.51,0.676 0.909,0.717c1.091,0.121 2.183,-0.123 3.243,-0.364c-0.004,-1.71 -0.025,-3.42 -0.016,-5.128C100.8,100.794 99.62,101.99 98.431,103.178L98.431,103.178zM47.587,103.036c0.767,-1.33 2.159,-2.31 3.699,-2.483c1.838,-0.132 3.712,0.341 5.285,1.297c2.726,1.659 4.344,4.625 5.187,7.613c0.205,1.511 -0.063,3.139 -0.937,4.415c-0.597,0.874 -1.51,1.486 -2.5,1.842c-4.563,2.098 -9.112,4.22 -13.671,6.324c-0.004,-1.642 -0.002,-3.282 -0.002,-4.921c4.639,-2.158 9.282,-4.308 13.922,-6.466c0.002,-0.588 -0.008,-1.174 -0.029,-1.761c-1.387,0.812 -2.838,1.511 -4.324,2.123c-1.533,0.608 -3.127,1.161 -4.792,1.227c-0.876,0.029 -1.866,-0.154 -2.445,-0.871c-0.552,-0.674 -0.577,-1.587 -0.544,-2.413C46.337,106.943 46.544,104.814 47.587,103.036L47.587,103.036zM50.92,104.941c-0.645,0.129 -1.258,0.532 -1.533,1.139c-0.299,0.65 -0.233,1.394 -0.059,2.07c1.856,-0.697 3.7,-1.426 5.557,-2.125c-0.182,-0.512 -0.612,-0.91 -1.125,-1.085C52.844,104.619 51.847,104.738 50.92,104.941L50.92,104.941z" fill="#231F20"/>
  <path d="M74.82,102.703c2.13,1.295 4.199,2.695 6.153,4.244c1.244,1.005 2.466,2.061 3.458,3.323c0.554,0.726 1.084,1.574 1.025,2.524c-0.025,0.695 0.039,1.396 -0.033,2.09c-0.248,0.853 -1.021,1.42 -1.77,1.827c-2.949,1.426 -5.885,2.877 -8.837,4.302c-1.316,0.526 -2.736,0.96 -4.174,0.82c-0.978,-0.082 -1.917,-0.654 -2.345,-1.548c-0.649,-1.303 -0.54,-2.82 -0.303,-4.211c0.303,-1.128 0.982,-2.105 1.635,-3.056c1.555,-2.152 3.339,-4.131 5.193,-6.03C74.82,105.558 74.818,104.131 74.82,102.703L74.82,102.703zM74.732,112.301c-1.252,1.054 -2.519,2.142 -3.405,3.531c-0.286,0.491 -0.628,1.159 -0.252,1.692c0.225,0.411 0.747,0.477 1.172,0.446c1.072,-0.093 2.083,-0.502 3.069,-0.906c2.32,-0.997 4.52,-2.244 6.675,-3.548c-0.847,-1.616 -2.269,-2.863 -3.818,-3.794C76.991,110.538 75.839,111.393 74.732,112.301z" fill="#231F20"/>
</svg>
