<?xml version="1.0" encoding="utf-8"?>
<svg id="master-artboard" viewBox="0 0 257 257" version="1.1" xmlns="http://www.w3.org/2000/svg" x="0px" y="0px" style="enable-background:new 0 0 1400 980;" width="257px" height="257px"><rect id="ee-background" x="0" y="0" width="257" height="257" style="fill: white; fill-opacity: 0; pointer-events: none;"/><g transform="matrix(2.4637105464935303, 0, 0, 2.550647258758545, -27.573625564575195, 0.3505895137786865)"><path d="M64.343,55.738c-0.114,0.004 -0.228,0.008 -0.341,0.011c0.021,-0.241 0.041,-0.481 0.062,-0.721c1.857,-4.035 3.709,-8.072 5.573,-12.103c0.96,-2.077 0.921,-2.127 -1.378,-2.168c-5.884,-0.105 -11.768,-0.226 -17.651,-0.354c-1.567,-0.034 -3.427,-0.841 -4.613,0.045c-1.1,0.822 -1.461,2.628 -2.16,3.995c-1.808,3.539 -3.639,7.066 -5.419,10.619c-0.314,0.626 -0.669,0.864 -1.378,0.862c-8.227,-0.026 -16.454,-0.027 -24.681,-0.003c-0.767,0.002 -1.081,-0.173 -1.03,-0.997c0.069,-1.118 0.096,-2.25 -0.006,-3.362c-0.09,-0.978 0.313,-1.129 1.1,-0.911c2.632,0.728 5.321,0.893 8.029,0.77c6.212,-0.282 11.809,-2.297 16.628,-6.236c4.869,-3.981 8.049,-9.063 9.212,-15.286c1.04,-5.567 0.373,-10.969 -1.763,-16.221c-1.09,-2.68 -2.437,-5.209 -4.075,-7.576c-0.439,-0.634 -0.264,-0.866 0.24,-1.149c1.011,-0.567 2.081,-1.046 3.032,-1.699c0.805,-0.552 1.246,-0.306 1.834,0.314c3.623,3.819 5.681,8.406 6.744,13.496c0.412,1.972 0.407,1.957 2.471,1.942c6.964,-0.05 13.929,-0.122 20.893,-0.096c1.228,0.005 1.449,-0.365 1.401,-1.497c-0.205,-4.884 -3.379,-9.011 -8.099,-10.321c-1.247,-0.346 -2.518,-0.746 -3.793,-0.81c-1.364,-0.069 -2.098,-0.599 -2.521,-1.858c-0.469,-1.397 -1.068,-2.751 -1.669,-4.273c2.24,0 4.368,-0.131 6.475,0.024c6.739,0.497 13.146,2.322 19.156,5.38c10.718,5.454 19.036,13.343 24.171,24.363c1.474,3.164 2.424,6.489 3.103,9.904c0.148,0.742 -0.097,0.911 -0.768,0.874c-7.556,-0.427 -15.131,0.023 -22.687,-0.472c-1.443,-0.095 -2.9,0.033 -4.345,-0.045c-0.83,-0.045 -1.018,0.507 -1.274,1.042c-2.159,4.516 -4.311,9.035 -6.465,13.553c-0.637,0.52 -1.363,0.628 -2.176,0.62c-3.476,-0.035 -6.953,-0.021 -10.429,-0.007C65.262,55.39 64.706,55.208 64.343,55.738z" fill="#29358A"/><path d="M18.416,46.934c-1.703,0.15 -3.727,-0.138 -5.736,-0.581c-0.796,-0.175 -1.244,-0.42 -1.101,-1.479c0.205,-1.515 0.4,-3.038 0.561,-4.56c0.099,-0.931 0.324,-1.027 1.204,-0.775c4.098,1.172 8.121,0.933 12.096,-0.693c6.528,-2.671 10.71,-10.135 9.607,-16.994c-0.583,-3.63 -2.036,-6.818 -4.217,-9.697c-0.643,-0.848 -0.569,-1.275 0.265,-1.843c1.111,-0.756 2.195,-1.567 3.207,-2.45c0.822,-0.718 1.346,-0.469 1.975,0.237c3.979,4.464 6.188,9.591 6.237,15.649c0.056,6.813 -2.422,12.518 -7.353,17.11C30.577,45.127 25.066,47.139 18.416,46.934z" fill="#2A358A"/><path d="M108.104,53.632c1.437,-0.074 3.714,0.359 5.992,0.846c0.633,0.135 0.949,0.399 0.871,0.995c-0.202,1.561 -0.274,3.136 -0.632,4.684c-0.155,0.67 -0.227,0.777 -0.957,0.612c-4.489,-1.014 -8.944,-1.034 -13.196,1.007c-5.224,2.508 -8.3,6.66 -9.203,12.392c-0.811,5.15 0.714,9.626 4.073,13.505c0.828,0.956 0.657,1.47 -0.309,2.107c-1.084,0.714 -2.086,1.552 -3.122,2.339c-0.646,0.491 -1.05,0.665 -1.789,-0.155c-8.411,-9.338 -7.989,-23.509 1.117,-32.161C95.476,55.503 101.008,53.667 108.104,53.632z" fill="#2A368A"/><path d="M101.619,76.605c-0.015,1.916 0.574,3.5 1.815,4.8c0.467,0.489 0.463,0.796 -0.021,1.25c-1.022,0.959 -2.017,1.95 -2.983,2.965c-0.49,0.514 -0.827,0.561 -1.354,0.007C95.74,82.124 94,78.086 95.599,73.311c1.544,-4.611 4.908,-7.404 9.707,-8.451c2.298,-0.501 4.519,-0.265 6.736,0.372c0.748,0.215 1.089,0.555 0.651,1.395c-0.578,1.108 -1.077,2.261 -1.539,3.423c-0.43,1.083 -0.998,1.391 -2.195,0.99c-2.652,-0.888 -5.159,0.006 -6.465,2.096C101.806,74.237 101.539,75.435 101.619,76.605z" fill="#2B368B"/><path d="M30.989,23.991c0.389,5.451 -4.205,10.278 -9.408,11.418c-2.511,0.55 -4.966,0.404 -7.387,-0.513c-0.543,-0.206 -0.82,-0.335 -0.528,-0.941c0.641,-1.333 1.285,-2.666 1.872,-4.024c0.244,-0.565 0.481,-0.604 1.045,-0.397c2.81,1.031 5.387,0.379 6.859,-1.665c1.871,-2.596 1.915,-5.677 -0.117,-8.067c-0.825,-0.97 -0.727,-1.486 0.132,-2.239c0.91,-0.798 1.758,-1.675 2.568,-2.576c0.509,-0.566 0.848,-0.709 1.391,-0.025C29.538,17.636 31.232,20.461 30.989,23.991z" fill="#2B368B"/><path d="M64.343,55.738c0.363,-0.53 0.919,-0.349 1.403,-0.35c3.476,-0.014 6.953,-0.028 10.429,0.007c0.813,0.008 1.54,-0.099 2.176,-0.62c-0.193,0.51 -0.302,1.085 -1.048,1.073C72.984,55.781 68.662,55.99 64.343,55.738z" fill="#4F5A9E"/><path d="M64.064,55.028c-0.021,0.24 -0.041,0.48 -0.062,0.721C63.63,55.476 63.749,55.244 64.064,55.028z" fill="#4F5A9E"/><path d="M26.677,60.124c4.533,0.001 9.067,-0.013 13.6,0.014c0.788,0.005 1.177,-0.192 1.542,-0.995c2.141,-4.717 4.398,-9.382 6.592,-14.075c0.235,-0.502 0.531,-0.668 1.07,-0.663c4.3,0.041 8.599,0.067 12.899,0.07c0.839,0.001 0.916,0.227 0.571,0.968c-2.067,4.447 -4.069,8.924 -6.139,13.37c-0.464,0.996 -0.438,1.33 0.821,1.322c7.384,-0.048 14.769,-0.04 22.153,0.015c0.973,0.007 1.395,-0.358 1.761,-1.172c2.01,-4.472 4.088,-8.913 6.084,-13.391c0.395,-0.887 0.859,-1.22 1.861,-1.203c8.079,0.139 16.16,0.225 24.24,0.291c0.774,0.006 1.074,0.222 1.104,1.007c0.045,1.16 0.124,2.329 0.331,3.468c0.162,0.889 -0.059,0.882 -0.83,0.72c-7.053,-1.48 -13.881,-0.804 -20.287,2.577c-7.375,3.893 -12.203,9.89 -13.955,18.113c-1.668,7.827 0.274,14.963 4.6,21.55c0.608,0.926 1.761,1.842 1.737,2.739c-0.024,0.899 -1.624,1.162 -2.47,1.808c-1.891,1.442 -1.411,1.358 -2.765,-0.209c-3.503,-4.053 -5.97,-8.604 -6.716,-13.97c-0.136,-0.976 -0.783,-0.755 -1.343,-0.756c-5.235,-0.011 -10.469,-0.007 -15.704,-0.007c-2.15,0 -4.302,0.062 -6.449,-0.025c-1.163,-0.047 -1.474,0.177 -1.277,1.438c0.619,3.961 2.137,7.289 5.83,9.273c1.899,1.02 3.954,1.521 6.094,1.725c0.997,0.095 1.756,0.478 2.16,1.542c0.474,1.248 1.092,2.45 1.743,3.62c0.468,0.842 0.344,1.129 -0.636,1.154c-3.923,0.098 -7.83,-0.09 -11.684,-0.835c-7.225,-1.398 -13.899,-4.165 -19.944,-8.375c-9.33,-6.498 -16.208,-14.941 -20.105,-25.692c-0.501,-1.382 -0.771,-2.846 -1.173,-4.265c-0.246,-0.866 -0.065,-1.189 0.941,-1.176C17.516,60.155 22.097,60.123 26.677,60.124z" fill="#29358A"/></g></svg>