<?xml version="1.0" ?>
<svg xmlns="http://www.w3.org/2000/svg" width="128" height="128" viewBox="0 0 128 128">
  <path d="M123.239,41.818c0.944,2.25 1.68,4.54 2.328,6.863c1.001,3.585 1.625,7.233 1.973,10.935c0.245,2.61 0.28,5.231 0.136,7.833c-0.443,8.034 -2.42,15.7 -5.769,23.023c-2.267,4.959 -5.074,9.591 -8.322,13.953c-0.953,1.28 -2.165,2.377 -3.321,3.493c-2.023,1.952 -4.118,3.828 -6.345,5.551c-4.954,3.832 -10.295,6.998 -16.071,9.432c-5.428,2.286 -11.066,3.807 -16.892,4.604c-3.754,0.514 -7.534,0.602 -11.324,0.434c-5.516,-0.245 -10.887,-1.27 -16.125,-2.979c-3.537,-1.154 -6.937,-2.641 -10.209,-4.422c-3.631,-1.976 -7.026,-4.3 -10.221,-6.909c-3.834,-3.131 -7.094,-6.815 -10.096,-10.734c-2.451,-3.199 -4.593,-6.6 -6.391,-10.204C3.841,87.184 1.943,81.395 0.884,75.32c-0.886,-5.08 -1.049,-10.194 -0.741,-15.31c0.347,-5.757 1.472,-11.394 3.273,-16.883c0.152,-0.463 0.094,-1.134 0.55,-1.328c0.414,-0.176 0.822,0.342 1.228,0.554c3.772,1.964 7.528,3.957 11.3,5.919c0.455,0.237 0.51,0.459 0.368,0.941c-0.991,3.346 -1.495,6.771 -1.733,10.254c-0.144,2.113 -0.145,4.223 -0.079,6.327c0.078,2.499 0.362,4.991 0.788,7.462c0.724,4.206 1.874,8.285 3.62,12.186c1.852,4.139 4.234,7.926 7.596,11.012c1.705,1.565 3.181,3.352 4.93,4.875c2.615,2.276 5.427,4.255 8.47,5.908c4.087,2.22 8.412,3.802 12.966,4.74c2.425,0.5 4.874,0.789 7.353,0.94c5.202,0.317 10.289,-0.316 15.284,-1.692c5.934,-1.636 11.361,-4.358 16.365,-7.937c3.089,-2.209 5.934,-4.694 8.562,-7.431c0.744,-0.775 1.353,-1.662 1.959,-2.541c2.21,-3.21 4.062,-6.618 5.481,-10.252c1.686,-4.32 2.788,-8.782 3.245,-13.404c0.214,-2.166 0.381,-4.332 0.324,-6.507c-0.088,-3.376 -0.401,-6.732 -1.074,-10.046c-0.246,-1.211 -0.523,-2.417 -0.805,-3.62c-0.09,-0.386 -0.141,-0.659 0.315,-0.899c4.146,-2.185 8.278,-4.397 12.414,-6.6C122.955,41.924 123.079,41.884 123.239,41.818z" fill="#02378E"/>
  <path d="M80.989,69.019c-1.045,0.689 -2.123,1.416 -3.217,2.118c-4.126,2.647 -8.456,4.919 -12.884,7.013c-6.01,2.841 -12.199,5.22 -18.53,7.235c-5.688,1.811 -11.469,3.253 -17.343,4.326c-0.711,0.13 -1.142,-0.011 -1.614,-0.575c-2.929,-3.504 -4.715,-7.528 -5.593,-11.98c-0.132,-0.667 -0.106,-0.687 0.6,-0.769c5.007,-0.58 9.898,-1.665 14.661,-3.326c3.485,-1.215 6.861,-2.683 10.199,-4.252c5.127,-2.411 10.199,-4.933 15.257,-7.486c2.752,-1.389 5.447,-2.893 8.2,-4.28c5.314,-2.679 10.767,-4.987 16.706,-5.898c2.35,-0.36 4.713,-0.577 7.15,-0.417c0.066,0.421 -0.071,0.794 -0.154,1.171c-0.71,3.226 -0.815,6.434 0.245,9.618c1.123,3.373 3.264,5.877 6.379,7.57c1.694,0.921 3.493,1.524 5.386,1.871c0.781,0.144 0.753,0.162 0.691,0.879c-0.408,4.791 -2.234,9.069 -4.695,13.127c-0.22,0.362 -0.419,0.426 -0.8,0.343c-6.84,-1.488 -12.509,-4.845 -16.764,-10.47c-1.296,-1.714 -2.477,-3.502 -3.491,-5.399C81.3,69.291 81.234,69.133 80.989,69.019z" fill="#0498F0"/>
  <path d="M31.108,93.608c2.134,-0.43 4.168,-0.822 6.194,-1.25c5.383,-1.139 10.635,-2.724 15.787,-4.651c6.604,-2.47 12.932,-5.536 19.175,-8.791c1.872,-0.976 3.74,-1.958 5.625,-2.909c1.219,-0.615 0.835,-0.649 1.759,0.425c2.621,3.046 5.641,5.62 8.967,7.856c3.154,2.12 6.524,3.835 9.991,5.373c0.889,0.395 0.905,0.411 0.36,1.252c-2.457,3.792 -5.567,6.934 -9.358,9.403c-0.372,0.242 -0.65,0.209 -1.009,0.026c-1.912,-0.976 -3.77,-2.047 -5.559,-3.23c-2.153,-1.424 -4.306,-2.849 -6.422,-4.326c-0.496,-0.347 -0.849,-0.345 -1.342,-0.07c-5.086,2.831 -10.478,4.939 -15.994,6.751c-4.806,1.578 -9.68,2.927 -14.522,4.386c-0.389,0.117 -0.7,0.08 -1.053,-0.085c-3.276,-1.538 -6.207,-3.581 -8.814,-6.081C33.591,96.436 32.285,95.183 31.108,93.608z" fill="#0498F0"/>
  <path d="M84.84,102.911c-5.543,3.157 -11.448,4.619 -17.6,5.067c-5.593,0.407 -11.143,0.057 -16.476,-2.063c1.499,-0.402 2.997,-0.805 4.496,-1.207c5.669,-1.518 11.203,-3.41 16.494,-5.971c0.843,-0.408 1.661,-0.871 2.47,-1.342c0.375,-0.219 0.635,-0.168 0.987,0.08c2.164,1.524 4.352,3.014 6.756,4.146C82.87,102.045 83.788,102.439 84.84,102.911z" fill="#0798EF"/>
  <path d="M102.624,21.2c-0.259,-0.221 -0.429,-0.445 -0.037,-0.703c1.052,-0.694 2.212,-0.331 2.698,0.858c0.189,0.462 0.312,0.952 0.521,1.404c0.195,0.423 0.463,0.811 0.703,1.222c-0.209,0.275 -0.552,0.331 -0.84,0.487c-0.36,0.195 -0.619,0.211 -0.974,-0.092c-0.402,-0.344 -0.949,-0.431 -1.497,-0.49c-1.556,-0.166 -2.758,-0.893 -3.421,-2.366c-0.061,-0.135 -0.112,-0.244 -0.267,-0.229c-0.601,0.058 -0.988,-0.345 -1.464,-0.68c-0.445,0.427 -0.926,0.828 -1.525,1.05c-0.325,0.121 -0.629,0.19 -0.942,-0.061c-0.496,-0.397 -1.016,-0.763 -1.519,-1.15c-0.157,-0.121 -0.329,-0.262 -0.19,-0.498c0.099,-0.169 0.275,-0.179 0.443,-0.156c0.761,0.103 1.521,0.214 2.293,0.18c0.759,-0.033 0.757,-0.04 0.765,-0.813c0.003,-0.318 -0.249,-0.705 0.08,-0.945c0.346,-0.252 0.758,-0.416 1.152,-0.596c0.178,-0.081 0.324,0.003 0.377,0.202c0.069,0.258 0.106,0.529 0.205,0.774c0.284,0.705 0.868,0.958 1.6,0.703c0.189,-0.066 0.37,-0.198 0.559,-0.047c0.204,0.162 0.108,0.371 0.021,0.546c-0.219,0.443 -0.063,0.759 0.298,1.033c0.264,0.201 0.515,0.421 0.771,0.632c0.39,0.386 0.722,0.863 1.415,0.965C103.58,21.768 103.394,21.183 102.624,21.2z" fill="#3E3D3E"/>
  <path d="M110.349,30.082c0.752,-0.371 1.545,-0.609 2.367,-0.741c0.431,-0.069 0.701,0.032 0.705,0.56c0.006,0.997 0.127,1.992 -0.308,2.953c-0.319,0.706 -0.825,1.108 -1.57,1.249c-0.829,0.157 -1.398,-0.201 -1.473,-1.049c-0.04,-0.458 -0.147,-0.746 -0.594,-0.906c-0.47,-0.168 -0.684,-0.617 -0.961,-0.988c-0.186,-0.249 -0.372,-0.362 -0.664,-0.148c-0.159,0.117 -0.345,0.206 -0.531,0.275c-1.047,0.392 -1.326,0.312 -2.052,-0.552c-0.3,-0.358 -0.613,-0.705 -0.91,-1.066c-0.108,-0.131 -0.174,-0.292 -0.045,-0.453c0.124,-0.155 0.302,-0.154 0.456,-0.087c0.675,0.293 1.367,0.531 2.082,0.709c0.913,0.228 1.126,0.066 1.145,-0.8c0.005,-0.224 -0.102,-0.592 0.246,-0.691c0.477,-0.136 0.953,-0.381 1.461,-0.272c0.233,0.05 0.177,0.342 0.144,0.525C109.745,29.183 109.965,29.642 110.349,30.082zM111.71,31.197c-0.026,-0.235 -0.081,-0.462 -0.358,-0.502c-0.184,-0.027 -0.305,0.08 -0.303,0.277c0.003,0.248 0.107,0.452 0.357,0.511C111.609,31.53 111.673,31.361 111.71,31.197zM111.524,33.129c0.257,-0.141 0.366,-0.369 0.319,-0.646c-0.027,-0.158 -0.178,-0.131 -0.311,-0.106c-0.315,0.059 -0.311,0.275 -0.271,0.514C111.287,33.036 111.387,33.105 111.524,33.129z" fill="#3E3D3E"/>
  <path d="M73.799,9.7c-0.654,-0.15 -1.109,-0.228 -1.547,-0.361c-0.912,-0.277 -1.126,-0.72 -0.773,-1.589c0.282,-0.692 0.683,-1.304 1.336,-1.71c0.881,-0.547 1.964,-0.054 2.133,0.968c0.11,0.659 -0.093,0.822 -0.736,0.579c-0.547,-0.207 -1.086,-0.37 -1.646,0.108c0.38,0.334 0.861,0.337 1.283,0.474c0.705,0.228 0.985,0.639 0.877,1.343c-0.205,1.339 -1.161,2.229 -2.515,2.299c-0.803,0.041 -1.607,0.038 -2.384,-0.249c-1.189,-0.44 -1.725,-1.371 -1.453,-2.613c0.115,-0.524 0.311,-1.027 0.605,-1.478c0.121,-0.186 0.28,-0.404 0.569,-0.302c0.297,0.105 0.262,0.366 0.224,0.592c-0.076,0.45 -0.363,0.903 0.01,1.338c0.394,0.459 0.946,0.591 1.512,0.706C72.065,9.961 72.823,9.956 73.799,9.7z" fill="#3E3D3E"/>
  <path d="M33.123,14.39c-0.334,-0.522 -0.521,-1.081 -0.464,-1.712c0.072,-0.8 0.72,-1.251 1.482,-1.02c1.136,0.344 2.283,2.036 2.178,3.218c-0.064,0.72 -0.452,1.253 -1.022,1.653c-0.353,0.248 -0.744,0.442 -1.124,0.664c-0.081,0.262 0.149,0.418 0.225,0.626c0.392,1.068 0.203,1.729 -0.707,2.385c-0.326,0.235 -0.659,0.46 -0.992,0.686c-0.166,0.112 -0.343,0.247 -0.527,0.04c-0.154,-0.173 -0.118,-0.367 -0.022,-0.56c0.223,-0.448 0.461,-0.889 0.659,-1.348c0.132,-0.305 0.224,-0.631 0.297,-0.955c0.073,-0.323 0.003,-0.557 -0.382,-0.69c-0.338,-0.117 -0.785,0.014 -1.011,-0.343c-0.302,-0.476 -0.19,-1.032 -0.27,-1.652c0.989,0.131 1.887,0.019 2.66,-0.577c0.418,-0.161 0.826,-0.334 1.013,-0.839C34.493,14.35 33.868,14.69 33.123,14.39zM33.616,13.16c0.023,0.14 0.118,0.191 0.203,0.15c0.158,-0.078 0.406,-0.075 0.404,-0.333c-0.001,-0.104 -0.12,-0.165 -0.204,-0.139C33.843,12.893 33.659,12.964 33.616,13.16z" fill="#3E3D3E"/>
  <path d="M14.492,33.642c-0.111,-0.029 -0.174,-0.058 -0.239,-0.06c-0.331,-0.007 -0.686,0.334 -0.958,0.113c-0.36,-0.292 -0.44,-0.799 -0.619,-1.224c-0.113,-0.268 0.049,-0.358 0.272,-0.403c1.029,-0.206 2.843,0.769 3.28,1.731c0.296,0.653 -0.044,1.158 -0.327,1.68c-0.129,0.237 -0.291,0.429 0.002,0.68c0.37,0.319 0.472,0.742 0.207,1.167c-0.295,0.473 -0.785,0.619 -1.31,0.554c-0.355,-0.044 -0.7,-0.164 -1.097,-0.137c0.137,0.563 0.621,0.635 0.986,0.817c0.493,0.245 0.91,0.56 1.216,1.011c0.116,0.17 0.143,0.38 0.014,0.567c-0.149,0.217 -0.36,0.15 -0.535,0.065c-0.99,-0.481 -1.997,-0.935 -2.953,-1.477c-0.61,-0.346 -0.725,-0.888 -0.536,-1.559c0.085,-0.301 0.323,-0.54 0.202,-0.935c-0.091,-0.296 0.336,-0.353 0.555,-0.474C13.527,35.28 14.159,34.603 14.492,33.642zM13.798,36.876c0.704,0.1 1.093,0.027 1.135,-0.195c0.01,-0.051 -0.033,-0.143 -0.078,-0.169C14.435,36.273 14.143,36.502 13.798,36.876z" fill="#3E3D3E"/>
  <path d="M89.502,12.778c-0.196,-1.232 -0.196,-1.232 0.94,-1.835c0.085,-0.045 0.175,-0.082 0.264,-0.123c0.568,1.252 -0.125,3.235 -1.31,3.795c-0.217,0.103 -0.426,0.125 -0.676,0.08c-1.171,-0.212 -1.835,-0.728 -2.362,-1.906c-0.268,0.123 -0.528,0.277 -0.807,0.364c-0.678,0.212 -1.274,-0.018 -1.743,-0.493c-0.454,-0.46 -0.41,-1.025 -0.148,-1.586c0.143,-0.307 0.317,-0.593 0.553,-0.834c0.336,-0.343 0.645,-0.274 0.654,0.207c0.015,0.731 0.484,0.881 1.021,1.015c0.319,0.08 0.525,-0.019 0.529,-0.384c0.002,-0.235 0.003,-0.47 0.005,-0.704c0.006,-0.874 0.41,-1.305 1.286,-1.378c0.285,-0.024 0.376,0.163 0.318,0.371c-0.168,0.595 -0.046,1.203 -0.122,1.796c-0.092,0.725 0.202,1.149 0.862,1.375C88.983,12.613 89.163,12.792 89.502,12.778z" fill="#3E3D3E"/>
  <path d="M43.252,10.406c-1.015,-0.447 -1.016,-0.447 -0.894,-1.478c0.023,-0.195 0.059,-0.389 0.098,-0.638c0.972,0.136 1.454,0.73 1.769,1.555c0.31,0.81 0.354,1.61 -0.252,2.26c-1.017,1.092 -2.348,1.666 -3.805,1.82c-1.116,0.118 -2.242,-1.394 -1.99,-2.517c0.039,-0.173 0.135,-0.309 0.303,-0.36c0.145,-0.044 0.277,0.048 0.335,0.164c0.474,0.95 1.197,0.764 1.961,0.452C41.601,11.327 42.48,11.101 43.252,10.406z" fill="#3E3D3E"/>
  <path d="M112.981,38.816c0.022,-0.09 0.069,-0.169 0.046,-0.209c-0.52,-0.945 -0.295,-1.502 1,-2.034c0.4,-0.165 0.836,-0.243 1.277,-0.196c0.902,0.095 1.33,0.868 0.888,1.65c-0.161,0.285 -0.385,0.558 -0.639,0.763c-0.815,0.657 -1.747,1.107 -2.762,1.355c-1.047,0.256 -1.451,0.058 -1.951,-0.89c-0.218,-0.413 -0.421,-0.834 -0.618,-1.257c-0.074,-0.159 -0.066,-0.344 0.076,-0.461c0.154,-0.127 0.313,-0.03 0.456,0.062c0.45,0.289 0.892,0.59 1.351,0.863C112.374,38.624 112.629,38.855 112.981,38.816zM114.463,37.32c-0.049,0.326 -0.027,0.541 0.211,0.676c0.068,0.038 0.139,0.033 0.164,-0.044C114.934,37.655 114.825,37.452 114.463,37.32z" fill="#3E3D3E"/>
  <path d="M22.024,24.092c-0.718,0.042 -1.198,0.17 -1.665,0.35c-0.404,0.156 -0.646,0.123 -0.842,-0.356c-0.553,-1.351 -0.45,-1.552 1,-1.544c1.065,0.006 1.949,0.391 2.59,1.278c0.408,0.565 0.532,1.179 0.218,1.796c-0.373,0.733 -0.909,1.351 -1.778,1.49c-0.639,0.102 -1.635,-0.741 -1.743,-1.417c-0.038,-0.238 0.09,-0.45 0.327,-0.361C21.242,25.744 21.485,24.868 22.024,24.092z" fill="#3E3D3E"/>
  <path d="M17.367,29.557c-0.71,-0.078 -1.237,0.239 -1.775,0.472c-0.285,0.123 -0.453,0.074 -0.56,-0.181c-0.19,-0.45 -0.709,-0.917 -0.513,-1.335c0.23,-0.491 0.927,-0.426 1.447,-0.472c1.127,-0.1 2.019,0.373 2.686,1.257c0.336,0.445 0.424,0.95 0.235,1.511c-0.214,0.636 -0.649,1.093 -1.15,1.48c-0.355,0.275 -0.776,0.326 -1.226,0.107c-0.378,-0.183 -0.664,-0.443 -0.9,-0.771c-0.13,-0.181 -0.361,-0.348 -0.208,-0.615c0.132,-0.23 0.349,-0.095 0.538,-0.092C16.837,30.93 17.011,30.204 17.367,29.557z" fill="#3E3D3E"/>
  <path d="M83.427,9.671c-0.106,0.847 -0.441,1.51 -1.171,1.92c-0.695,0.391 -1.356,0.233 -1.978,-0.176c-0.672,-0.442 -0.847,-0.986 -0.544,-1.728c0.294,-0.72 0.771,-1.325 1.3,-1.886c0.318,-0.337 0.675,-0.354 1.081,-0.099C82.866,8.173 83.34,8.806 83.427,9.671zM82.219,10.003c0,-0.071 0.026,-0.153 -0.004,-0.192c-0.249,-0.323 -0.547,-0.586 -0.981,-0.599c-0.157,-0.005 -0.226,0.148 -0.239,0.277c-0.031,0.297 0.389,0.594 0.892,0.645c0.065,0.007 0.139,0.013 0.197,-0.01C82.139,10.102 82.179,10.041 82.219,10.003z" fill="#3E3D3E"/>
  <path d="M78.215,4.191c-0.355,2.171 -0.281,4.467 -1.856,6.319c-0.421,-0.262 -0.417,-0.572 -0.41,-0.874c0.029,-1.337 0.049,-2.675 0.194,-4.007c0.028,-0.256 0.104,-0.438 0.323,-0.579c0.502,-0.323 0.996,-0.66 1.493,-0.991C78.044,4.103 78.13,4.147 78.215,4.191z" fill="#3E3D3E"/>
  <path d="M56.538,2.84c0.435,0.774 0.547,1.601 0.649,2.406c0.146,1.15 0.46,2.306 0.116,3.476c-0.038,0.128 -0.049,0.265 -0.098,0.388c-0.062,0.156 -0.15,0.306 -0.355,0.297c-0.149,-0.007 -0.243,-0.106 -0.302,-0.23c-0.087,-0.181 -0.179,-0.362 -0.238,-0.552c-0.354,-1.149 -0.687,-2.305 -1.056,-3.45c-0.126,-0.39 -0.094,-0.702 0.184,-1.005C55.817,3.757 56.052,3.221 56.538,2.84z" fill="#3E3D3E"/>
  <path d="M65.001,6.19c0.565,0.442 0.884,0.998 1.012,1.738c0.143,0.828 0.013,1.601 -0.277,2.342c-0.39,0.996 -0.667,1.123 -1.73,1.076c-0.401,-0.018 -0.803,-0.002 -1.205,-0.005c-0.238,-0.002 -0.494,-0.001 -0.547,-0.309c-0.042,-0.248 0.164,-0.34 0.335,-0.44c0.577,-0.336 1.174,-0.641 1.729,-1.01c0.805,-0.535 0.832,-0.673 0.193,-1.354c-0.387,-0.412 -0.449,-0.775 -0.121,-1.229C64.581,6.735 64.62,6.362 65.001,6.19z" fill="#3E3D3E"/>
  <path d="M29.455,22.839c0.04,0.286 -0.045,0.554 -0.367,0.783c-0.486,0.346 -0.928,0.756 -1.379,1.149c-0.169,0.147 -0.353,0.222 -0.541,0.103c-0.216,-0.136 -0.121,-0.352 -0.058,-0.538c0.234,-0.69 0.511,-1.369 0.701,-2.071c0.216,-0.8 0.089,-0.942 -0.696,-1.056c-0.278,-0.04 -0.668,0.143 -0.803,-0.217c-0.162,-0.43 -0.231,-0.898 -0.315,-1.354c-0.026,-0.138 0.085,-0.238 0.241,-0.258c0.271,-0.035 0.532,0.015 0.787,0.097C28.172,19.849 29.426,21.552 29.455,22.839z" fill="#3E3D3E"/>
  <path d="M26.529,14.336c1.292,1.136 2.238,2.469 3.153,3.824c0.165,0.245 0.281,0.535 0.365,0.82c0.091,0.306 0.282,0.703 -0.03,0.922c-0.293,0.206 -0.535,-0.131 -0.749,-0.33c-0.954,-0.887 -1.904,-1.779 -2.858,-2.665c-0.236,-0.219 -0.325,-0.421 -0.233,-0.785C26.318,15.56 26.203,14.937 26.529,14.336z" fill="#3E3D3E"/>
  <path d="M53.706,6.954c1.507,1.048 2.024,3.101 1.21,4.64c-0.077,0.146 -0.15,0.358 -0.274,0.403c-0.819,0.298 -1.675,0.441 -2.545,0.415c-0.212,-0.006 -0.298,-0.268 -0.148,-0.47c0.096,-0.13 0.25,-0.218 0.378,-0.323c0.361,-0.297 0.738,-0.577 1.081,-0.893c0.988,-0.911 0.985,-1.012 -0.043,-1.864c-0.198,-0.165 -0.344,-0.301 -0.232,-0.58c0.099,-0.248 0.172,-0.507 0.257,-0.761C53.453,7.334 53.483,7.13 53.706,6.954z" fill="#3E3D3E"/>
  <path d="M61.175,2.441c0.558,1.949 0.678,3.823 0.474,5.717c-0.034,0.318 -0.058,0.841 -0.51,0.859c-0.483,0.019 -0.462,-0.515 -0.55,-0.837c-0.307,-1.12 -0.544,-2.26 -0.852,-3.38c-0.132,-0.478 -0.03,-0.854 0.297,-1.178C60.387,3.273 60.616,2.811 61.175,2.441z" fill="#3E3D3E"/>
  <path d="M93.59,14.018c0.6,1.701 -0.336,3.854 -1.892,4.516c-0.221,0.094 -0.447,0.193 -0.672,0.075c-0.65,-0.339 -1.294,-0.692 -1.933,-1.052c-0.112,-0.063 -0.192,-0.192 -0.176,-0.338c0.023,-0.219 0.207,-0.244 0.367,-0.256c0.664,-0.048 1.328,-0.079 1.992,-0.124c0.199,-0.014 0.396,-0.053 0.594,-0.085c0.447,-0.071 0.581,-0.273 0.474,-0.755c-0.238,-1.067 -0.206,-1.075 0.735,-1.686C93.215,14.224 93.362,14.149 93.59,14.018z" fill="#3E3D3E"/>
  <path d="M15.873,24.068c0.626,0.226 1.094,0.542 1.536,0.878c1.084,0.824 2.249,1.568 3.023,2.73c0.186,0.279 0.596,0.601 0.272,0.952c-0.268,0.29 -0.623,-0.005 -0.906,-0.163c-1.077,-0.6 -2.143,-1.22 -3.224,-1.811c-0.358,-0.196 -0.548,-0.442 -0.561,-0.861C15.996,25.265 15.93,24.736 15.873,24.068z" fill="#3E3D3E"/>
  <path d="M46.776,5.57c0.411,1.196 0.696,2.422 0.893,3.671c0.084,0.536 -0.034,1.049 -0.102,1.567c-0.029,0.226 -0.127,0.489 -0.382,0.535c-0.278,0.05 -0.396,-0.214 -0.484,-0.417c-0.198,-0.457 -0.375,-0.923 -0.535,-1.395c-0.212,-0.628 -0.352,-1.285 -0.609,-1.893c-0.358,-0.844 -0.16,-1.448 0.621,-1.89C46.414,5.812 46.581,5.644 46.776,5.57z" fill="#3E3D3E"/>
  <path d="M46.776,5.57c-0.195,0.074 -0.362,0.242 -0.598,0.179c-0.656,0.033 -1.379,-0.254 -1.88,0.469c-0.18,0.259 -0.345,0.06 -0.42,-0.137c-0.235,-0.618 0.204,-1.364 0.862,-1.441c0.923,-0.108 1.862,-0.139 2.624,-0.786c0.099,-0.084 0.245,-0.125 0.362,-0.023c0.153,0.133 0.125,0.306 0.024,0.448c-0.21,0.298 -0.432,0.594 -0.744,0.792C46.808,5.197 46.759,5.36 46.776,5.57z" fill="#3E3D3E"/>
  <path d="M100.933,25.942c-0.124,-0.387 0.337,-0.665 0.182,-1.082c-0.088,-0.236 0.048,-0.457 0.353,-0.466c0.293,-0.009 0.636,-0.065 0.676,0.366c0.025,0.27 0.096,0.432 0.403,0.428c0.499,-0.006 0.454,0.393 0.475,0.705c0.026,0.404 -0.29,0.394 -0.548,0.355c-0.293,-0.045 -0.492,0.112 -0.715,0.235C101.687,25.594 101.646,25.567 100.933,25.942z" fill="#3E3D3E"/>
  <path d="M18.053,34.115c0.119,-0.031 0.266,0.081 0.289,0.25c0.036,0.265 0.286,0.631 -0.135,0.772c-0.308,0.103 -0.449,0.191 -0.377,0.545c0.086,0.423 -0.243,0.467 -0.555,0.525c-0.228,0.042 -0.404,0.027 -0.454,-0.229c-0.056,-0.284 -0.205,-0.623 0.205,-0.763c0.252,-0.086 0.407,-0.171 0.34,-0.475C17.259,34.243 17.655,34.226 18.053,34.115z" fill="#3E3D3E"/>
  <path d="M98.176,21.681c0.087,0.011 0.124,0.007 0.153,0.021c0.058,0.029 0.164,0.078 0.16,0.101c-0.155,0.783 0.819,0.5 0.957,1.019c0.064,0.24 0.158,0.505 -0.1,0.615c-0.253,0.108 -0.635,0.217 -0.803,-0.099c-0.15,-0.282 -0.231,-0.499 -0.612,-0.534c-0.483,-0.044 -0.411,-0.48 -0.364,-0.787C97.619,21.663 98.02,21.83 98.176,21.681z" fill="#3E3D3E"/>
  <path d="M31.535,11.161c0.022,-0.064 0.034,-0.132 0.066,-0.188c0.079,-0.14 0.119,-0.456 0.233,-0.399c0.719,0.364 0.736,-0.782 1.357,-0.597c0.226,0.068 0.537,0.076 0.494,0.372c-0.038,0.258 -0.051,0.677 -0.47,0.648c-0.357,-0.025 -0.552,0.071 -0.687,0.403c-0.154,0.378 -0.449,0.154 -0.685,0.097C31.682,11.457 31.532,11.368 31.535,11.161z" fill="#3E3D3E"/>
  <path d="M100.055,16.509c-0.209,0.175 -0.382,0.136 -0.544,0.149c-0.533,0.041 -0.605,-0.053 -0.702,-0.65c-0.057,-0.346 0.136,-0.409 0.378,-0.447c0.366,-0.057 0.766,-0.155 0.802,0.426C99.999,16.152 100.03,16.315 100.055,16.509z" fill="#3E3D3E"/>
  <path d="M91.112,8.81c0.226,0.003 0.655,0.593 0.591,0.844c-0.107,0.418 -0.538,0.423 -0.823,0.428c-0.442,0.008 -0.45,-0.482 -0.476,-0.767C90.358,8.836 90.885,8.98 91.112,8.81z" fill="#3E3D3E"/>
  <path d="M42.662,13.759c0.246,0.133 0.749,0.056 0.666,0.527c-0.046,0.265 -0.051,0.764 -0.527,0.719c-0.301,-0.029 -0.715,-0.049 -0.792,-0.473C41.953,14.222 42.37,13.748 42.662,13.759z" fill="#3E3D3E"/>
  <path d="M94.554,12.884c-0.009,0.291 -0.456,0.189 -0.714,0.294c-0.227,0.093 -0.578,-0.42 -0.552,-0.769c0.032,-0.425 0.393,-0.388 0.663,-0.429C94.296,11.928 94.541,12.24 94.554,12.884z" fill="#3E3D3E"/>
  <path d="M52.253,5.671c0.647,-0.96 0.647,-0.96 1.442,-0.221C53.167,6.396 53.167,6.396 52.253,5.671z" fill="#3E3D3E"/>
  <path d="M100.933,25.942c0.714,-0.376 0.755,-0.349 0.826,0.542C100.992,26.763 100.943,26.731 100.933,25.942z" fill="#3E3D3E"/>
</svg>
